<svg xmlns="http://www.w3.org/2000/svg" xmlns:xlink="http://www.w3.org/1999/xlink" width="400" height="400" viewBox="0 0 400 400">
<rect data-name="background" width="100%" height="100%" fill="none"/><g data-name="container" data="container_num:8" fill="#e773b4" transform="translate(134.47999527971712, 96.02454035831825) scale(1.2373938390222154)"><path xmlns="http://www.w3.org/2000/svg" d="M105.9 53c0 3.4-3.8 6.4-4.5 9.6s1.7 7.6.5 10.6-6 4.4-7.8 7.2-1.3 7.6-3.7 10-7.2 1.8-10 3.7-4.1 6.5-7.2 7.8-7.3-1.1-10.6-.5-6.2 4.5-9.6 4.5-6.4-3.8-9.7-4.5-7.6 1.7-10.6.5-4.4-6-7.2-7.8-7.6-1.3-10-3.7-1.8-7.2-3.7-10-6.5-4-7.8-7.2 1.1-7.3.5-10.6S0 56.4 0 53s3.8-6.4 4.5-9.7-1.8-7.5-.5-10.6 6-4.4 7.8-7.2 1.3-7.6 3.7-10 7.2-1.8 10-3.7 4.1-6.5 7.2-7.8 7.3 1.1 10.6.5S49.6 0 53 0s6.4 3.8 9.7 4.5 7.5-1.8 10.6-.5 4.4 6 7.2 7.8 7.6 1.3 10 3.7 1.8 7.2 3.7 10 6.5 4.1 7.8 7.2-1.1 7.3-.5 10.6 4.4 6.3 4.4 9.7z"/></g><g data-name="icon" fill="#ffffff" data="id:6718460" transform="translate(156.32372378879649, 117.86244087867796) scale(0.8736160704453605)">
  
 <path d="m25.855 38.824c0.03125-0.55078 0.5-0.97266 1.0508-0.94141s0.97266 0.5 0.94141 1.0508c-0.75 13.266 2.3125 17.199 6.6484 22.766 2.5859 3.3203 5.6055 7.1992 8.5742 13.762 1.8281-1.6602 2.8164-3.7891 2.9688-6.375 0.18359-3.1484-0.83203-6.9922-3.0469-11.531l-0.019532-0.035157-0.011718-0.023437c-1.625-3.0586-3.7773-5.3906-5.75-7.5234-2.9688-3.2148-5.5625-6.0273-5.7656-10.348-0.027343-0.55078 0.39844-1.0156 0.94922-1.043 0.55078-0.027343 1.0156 0.39844 1.043 0.94922 0.16797 3.5938 2.5352 6.1562 5.2422 9.0898 1.8125 1.9648 3.7734 4.0859 5.4062 6.8086 0.77734-1.2734 0.54297-3.4922-0.31641-6.2031-1.1758-3.6953-3.5195-8.1836-6.1602-12.539l-1.5273-2.4492c-0.29688-0.46484-0.16016-1.0781 0.30469-1.375 0.46484-0.29688 1.0781-0.16016 1.375 0.30469l1.5508 2.4922c2.7148 4.4727 5.1289 9.1094 6.3555 12.965 1.2148 3.8125 1.2773 6.9648-0.57422 8.707 2.1523 4.5781 3.1289 8.5352 2.9375 11.863-0.19531 3.3945-1.5781 6.1289-4.1445 8.2031 1.2305 3.3203 1.6211 6.3945 1.3438 8.9961-0.24609 2.3086-1.0234 4.2656-2.2031 5.7266-1.2227 1.5117-2.8672 2.4883-4.8086 2.7852-1.5 0.23047-3.1758 0.042969-4.9609-0.625-0.51562-0.19141-0.77734-0.76562-0.58594-1.2812s0.76562-0.77734 1.2812-0.58594c1.4453 0.53906 2.7852 0.69141 3.9688 0.51172 1.4336-0.21875 2.6484-0.94141 3.5508-2.0586 0.94531-1.168 1.5664-2.7695 1.7734-4.6875 0.26562-2.4688-0.16016-5.4414-1.4609-8.6953l-0.042968-0.10938c-3.0273-7.0273-6.1562-11.043-8.8125-14.453-4.6094-5.9141-7.8594-10.09-7.0664-24.098zm18.555 5-0.046875-0.054688v-0.003906l-0.019531-0.027344-0.011719-0.011719-0.035156-0.054687-0.03125-0.0625-0.003906-0.003906-0.003907-0.007813c-0.085937-0.17578-0.125-0.38281-0.09375-0.58984 0.035157-0.23828 0.15234-0.44531 0.32031-0.59375l0.019531-0.015624c1.2852-1.3125 2.5859-2.2852 3.9102-2.9141l0.019532-0.011719 0.023437-0.007812 0.019531-0.007813h0.003907l0.042969-0.019531h0.003906l0.019531-0.007812 0.023437-0.011719h0.007813l0.023437-0.011719 0.046876-0.011719 0.035156-0.011719h0.011718l0.035157-0.011718h0.035156l0.050781-0.003906h0.125l0.046875 0.003906 0.015625 0.003906c0.12109 0.015625 0.24609 0.054688 0.36328 0.12109 0.72656 0.41406 1.3633 0.42969 1.9023 0.050781 0.22656-0.16016 0.49219-0.21094 0.74609-0.16797l0.023437 0.003906 0.050782 0.011719 0.019531 0.003907 0.015625 0.003906h0.007812l0.023438 0.007812h0.003906c0.69922 0.19141 1.3984 0.55469 2.0938 1.082 0.66406 0.50391 1.3281 1.1641 1.9922 1.9844l0.011718 0.011719 0.003907 0.007813 0.007812 0.007812 0.007813 0.011719 0.082031 0.082031 0.007813 0.011719 0.007812 0.007813 0.007812 0.011718 0.007813 0.007813 0.007813 0.011719 0.003906 0.007812 0.007812 0.011719v0.003906l0.003906 0.007813 0.007813 0.011718v0.003906l0.003906 0.007813 0.007813 0.011719 0.003906 0.007812 0.007812 0.011719v0.003906l0.003907 0.007813 0.007812 0.011718v0.003907l0.011719 0.023437v0.011719l0.007812 0.015625v0.007812l0.007813 0.015626v0.007812l0.007813 0.015625v0.007813l0.007812 0.015624v0.007813l0.003906 0.019531v0.003906l0.003906 0.019532v0.003906l0.003907 0.019531v0.003907l0.003906 0.019531v0.003906l0.003906 0.019531v0.003906l0.003907 0.019532v0.30078l-0.003907 0.015625v0.007812l-0.003906 0.015626v0.007812l-0.003906 0.015625v0.007813l-0.003907 0.015624v0.007813l-0.003906 0.015625v0.011719l-0.003906 0.015625v0.007812l-0.003906 0.015625v0.011719l-0.007813 0.015625-0.007812 0.023437-0.003907 0.007813-0.007812 0.011719v0.003906l-0.003906 0.007812-0.007813 0.011719v0.003907l-0.003906 0.007812-0.007813 0.011719v0.003906l-0.003906 0.007813-0.007812 0.011718v0.003906l-0.003906 0.007813-0.007813 0.007813v0.003906l-0.003906 0.007812-0.007813 0.007813v0.003906l-0.007812 0.011719-0.003906 0.007812v0.003906l-0.007813 0.011719-0.003906 0.007813v0.003906l-0.007813 0.011719-0.003906 0.007812v0.003907l-0.007812 0.011718-0.007813 0.007813-0.007813 0.011719-0.007812 0.007812-0.011719 0.015625-0.003906 0.007813c-0.66016 0.89453-1.332 1.625-2.0156 2.1914-1.1875 0.98047-2.4258 1.4844-3.7109 1.5078-1.2695 0.023438-2.5391-0.42969-3.8047-1.3594-0.78125-0.57422-1.5625-1.332-2.3398-2.2695l-0.015625-0.015625zm3.0586-1.4219c0.75391 0.050781 1.5469 0.078125 2.3828 0.078125 1.1133 0 2.2852-0.042969 3.5195-0.13281-0.10938-0.09375-0.21875-0.17969-0.32422-0.26172-0.36719-0.28125-0.72656-0.48828-1.0703-0.62891-0.96484 0.50781-2 0.51562-3.0977 0.027344-0.46875 0.25-0.9375 0.55859-1.4062 0.92188zm5.6055 1.9648c-1.1367 0.074218-2.2109 0.11328-3.2227 0.11328-0.69141 0-1.3594-0.019531-2.0039-0.050781l0.09375 0.070312c0.90625 0.66406 1.7734 0.99219 2.5938 0.97656 0.80859-0.015624 1.6367-0.36719 2.4688-1.0547l0.070313-0.058594zm8.582 6.7227c-2.5859-0.65234-4.875-1.0469-6.8633-1.1875-1.125-0.078125-2.1562-0.078125-3.0938 0.007812 0.32422 0.082032 0.70312 0.16016 1.1211 0.24219l0.082032 0.011718c1.0078 0.19922 2.1719 0.4375 3.418 0.91016 1.6602-0.83594 2.6523-0.37891 5.1797 0.78516 0.76172 0.35156 1.6875 0.78125 2.8398 1.2578 0.50781 0.21094 0.75 0.79687 0.53906 1.3047-0.21094 0.50781-0.79688 0.75-1.3047 0.53906-1.1914-0.49609-2.1367-0.92969-2.9102-1.2891-2.0234-0.93359-2.7188-1.25-3.7539-0.64453l-0.011718 0.007812c-0.039063 0.023438-0.082032 0.042969-0.12109 0.058594l-0.03125 0.015625-0.023438 0.007813-0.03125 0.011718-0.035156 0.011719h-0.003906l-0.023438 0.007813-0.019531 0.007812c-1.9805 0.55469-3.582 1.1016-4.793 1.6328-0.46875 0.20703-0.87109 0.40625-1.2109 0.59766l0.30469 0.046875c0.86719 0.11328 2.0547 0.066406 3.5508-0.13281l0.89453-0.47266 1.1992-0.58203c0.5-0.23047 1.0938-0.011719 1.3242 0.48828 0.23047 0.5 0.011719 1.0938-0.48828 1.3242l-1.1289 0.55078-0.97266 0.51172-0.074218 0.042968-0.019532 0.011719c-1.4609 0.81641-2.5195 1.5938-3.1602 2.332-0.26953 0.30469-0.45312 0.59766-0.5625 0.87109 0.11328-0.027344 0.22656-0.070312 0.33984-0.125 0.49219-0.24219 1.0195-0.72656 1.5742-1.4531 0.0625-0.082031 0.13672-0.14844 0.21484-0.20703l0.039063-0.027344 0.019531-0.011718 0.0625-0.035157c0.050782-0.027343 0.10156-0.046875 0.15625-0.0625h0.007813l0.015625-0.007812 0.058594-0.011719 0.054687-0.011719c0.49219-0.11328 1.0352-0.27344 1.625-0.47656 0.62109-0.21484 1.2695-0.47266 1.9375-0.76953l0.039063-0.019532 0.023437-0.007812h0.003906l0.019531-0.007813 0.070313-0.023437h0.003906l0.019531-0.007813h0.003907l0.019531-0.007812h0.003906l0.019532-0.007813h0.003906l0.019531-0.003906h0.007813l0.019531-0.003906h0.007812l0.019531-0.003906h0.007813l0.015625-0.003907h0.007812l0.015626-0.003906h0.007812l0.12109-0.003906h0.023437l0.039063 0.003906h0.007812c0.054688 0.007813 0.10938 0.015625 0.16406 0.03125h0.003906l0.11719 0.039063c1.1953 0.50781 2.2266 1.0234 3.0859 1.5469l0.070312 0.039063c0.91016 0.55859 1.6445 1.1406 2.1953 1.7422 0.11328 0.12109 0.1875 0.26563 0.22656 0.41797l0.003906 0.015625v0.007813l0.003906 0.015625v0.007812l0.003906 0.015625v0.011719l0.007813 0.035156v0.011719l0.003906 0.011719v0.011718l0.003906 0.050782v0.082031l-0.003906 0.070313v0.027343l-0.011719 0.074219-0.003906 0.019531-0.003906 0.007813-0.023438 0.085937-0.003906 0.007813c-0.019531 0.054687-0.039062 0.10938-0.066406 0.15625l-0.007813 0.011718-0.007812 0.007813-0.007813 0.011719-0.007812 0.007812-0.007813 0.011719c-0.046875 0.078125-0.10547 0.14844-0.17578 0.21094-0.12109 0.11328-0.26562 0.1875-0.41797 0.22656l-0.015625 0.003906h-0.007812l-0.015625 0.003907h-0.007813l-0.015625 0.003906h-0.011719l-0.035156 0.007812h-0.011718l-0.011719 0.003906h-0.011719l-0.050781 0.003907h-0.15234c-0.73047-0.027344-1.4336-0.03125-2.0977-0.003907-0.58984 0.023438-1.168 0.074219-1.7227 0.14453-1.2891 0.79297-2.2031 1.5547-2.7383 2.2852-0.22656 0.30859-0.37891 0.60938-0.45703 0.89844 0.36328-0.23438 0.74219-0.68359 1.1289-1.3359 0.066406-0.10938 0.14844-0.20312 0.24609-0.27734l0.058594-0.042968 0.039062-0.023438 0.042969-0.023438 0.019531-0.011718 0.039063-0.015625 0.023437-0.007813 0.039063-0.015625h0.003906l0.019531-0.007812h0.003906l0.019532-0.007813h0.003906l0.019531-0.007812h0.003907l0.019531-0.007813h0.003906l0.023437-0.007812 0.019532-0.003907h0.007812l0.015625-0.003906h0.007813l0.015625-0.003906h0.011719l0.015624-0.003906h0.078126c0.44531-0.046875 0.88281-0.14844 1.3047-0.29688 0.41797-0.14844 0.83203-0.35938 1.2422-0.62109h0.003907l0.015625-0.011719h0.003906l0.019531-0.011718 0.003907-0.003907 0.019531-0.011719 0.023437-0.011718 0.039063-0.023438 0.003906-0.003906 0.019531-0.007812h0.003906l0.019532-0.007813 0.003906-0.003906 0.019531-0.007813 0.078125-0.039062 0.015625-0.003906 0.007813-0.003907 0.015625-0.003906 0.007812-0.003906 0.015625-0.003907 0.007813-0.003906 0.015625-0.003906 0.046875-0.015625h0.011719l0.023437-0.007813h0.011719l0.011718-0.003906h0.24219l0.019531 0.003906h0.007813l0.019531 0.003907h0.007813l0.019531 0.003906h0.003906l0.019531 0.003906h0.003906l0.019532 0.003907 0.023437 0.003906 0.023438 0.007812 0.019531 0.007813h0.003906l0.019532 0.007812h0.003906c0.47266 0.14453 0.92969 0.24609 1.3633 0.29688 0.4375 0.046875 0.87109 0.050782 1.2891 0.007813 0.54687-0.058594 1.043 0.33594 1.1016 0.88281s-0.33594 1.043-0.88281 1.1016c-0.26172 0.027344-0.52344 0.042968-0.78906 0.042968 0.019531 0.066407 0.035156 0.13672 0.042969 0.21094 0.27344 2.9219 1.4766 4.1484 2.6328 5.332 1.2383 1.2656 2.4414 2.4961 2.832 5.1523 0.078124 0.54688-0.29688 1.0547-0.84375 1.1328-0.54688 0.078124-1.0547-0.29688-1.1328-0.84375-0.29688-2.0195-1.2734-3.0156-2.2773-4.043-1.4023-1.4297-2.8555-2.9141-3.1953-6.543-0.019531-0.21094 0.03125-0.41797 0.12891-0.58984-0.14844-0.03125-0.29688-0.070312-0.44922-0.10938-0.41797 0.24219-0.85547 0.44141-1.3047 0.60547-0.43359 0.15625-0.875 0.26953-1.3281 0.34375-0.47266 0.71094-0.97266 1.2383-1.5 1.5781-0.73438 0.47656-1.5078 0.60547-2.3047 0.38672l-0.003906-0.003906-0.082031-0.027344-0.054688-0.019532-0.085937-0.042968-0.003906-0.003906-0.0625-0.035157-0.039063-0.023437-0.058594-0.046875-0.015625-0.015625-0.019531-0.015625-0.078125-0.078125-0.046875-0.058594-0.058594-0.097656-0.023437-0.042969v-0.003906l-0.007813-0.019531-0.003906-0.003907-0.007813-0.019531-0.003906-0.003906-0.007812-0.019532-0.003906-0.003906-0.007813-0.019531-0.015625-0.03125-0.003906-0.015625-0.003906-0.007812-0.003907-0.015626-0.003906-0.007812-0.027344-0.082031-0.003906-0.019531v-0.003907c-0.27344-1.1289-0.003906-2.25 0.80859-3.3555 0.70703-0.96484 1.8555-1.9297 3.4375-2.8867l0.039062-0.023438c0.070313-0.042968 0.14453-0.078125 0.22266-0.10547h0.003906c0.054687-0.019532 0.10938-0.03125 0.16797-0.039063 0.46094-0.066406 0.94531-0.11719 1.457-0.15234-0.60547-0.34766-1.3008-0.69141-2.0742-1.0352-0.61328 0.26172-1.1875 0.48828-1.7227 0.67578-0.53906 0.1875-1.0586 0.34375-1.5508 0.46875-0.67578 0.82031-1.3633 1.4062-2.0547 1.7461-0.85938 0.42578-1.7188 0.48828-2.5664 0.19141h-0.003906l-0.023438-0.007812c-0.042969-0.011719-0.085938-0.03125-0.12891-0.050782l-0.046875-0.023437h-0.003907l-0.019531-0.011719h-0.003906l-0.058594-0.039062-0.039062-0.023438-0.019531-0.015625-0.019532-0.011719v-0.003906l-0.035156-0.03125v-0.003906l-0.035156-0.035156c-0.14062-0.14062-0.23828-0.32422-0.27734-0.53516-0.19141-1.0898 0.18359-2.1719 1.1211-3.2461 0.21094-0.23828 0.45312-0.48047 0.72266-0.72266-0.20703-0.011719-0.40625-0.03125-0.58984-0.054688-1.25-0.16016-2.125-0.59375-2.6211-1.2891l-0.007812-0.007813c-0.058594-0.074219-0.10547-0.15625-0.13672-0.24219l-0.003906-0.003907-0.03125-0.089843v-0.003907l-0.015625-0.070312-0.011719-0.070313v-0.046875l-0.003906-0.12109v-0.023438l0.007813-0.070312 0.019531-0.11719 0.011719-0.046875c0.027343-0.097656 0.074218-0.19141 0.13672-0.28125l0.003906-0.007813 0.011719-0.011718 0.054688-0.066406 0.027343-0.027344v-0.003906c0.56641-0.62891 1.543-1.2461 2.918-1.8516 0.55859-0.24609 1.1953-0.49219 1.9062-0.74219l-0.41406-0.082032-0.082031-0.019531c-2.1406-0.42969-3.6836-0.76562-3.8984-2.7305v-0.007812l-0.003906-0.015625v-0.007813l-0.003906-0.097656v-0.046875l0.003906-0.042969v-0.003906l0.007812-0.042969v-0.003906l0.007813-0.042969v-0.003906l0.015625-0.070312 0.015625-0.042969 0.007812-0.019531 0.019531-0.042969 0.023438-0.058594 0.082031-0.13672 0.078125-0.097656 0.046875-0.046875 0.019531-0.015625 0.015626-0.015625h0.003906l0.035156-0.027344h0.003906l0.019532-0.011719h0.003906c0.039062-0.027343 0.082031-0.050781 0.12109-0.074218h0.003906l0.019531-0.007813h0.003906c0.039063-0.019531 0.078125-0.03125 0.11719-0.042969l0.015625-0.007812 0.046875-0.011719 0.023437-0.007812 0.023438-0.003907c1.5742-0.40234 3.4375-0.52734 5.5898-0.375 2.1328 0.14844 4.5625 0.57031 7.2812 1.2578l0.058593 0.019531 0.09375 0.035156 0.011719 0.007813 0.035156 0.015625 0.023438 0.011719c4.9375 2.168 6.1523 3.4141 7.3203 4.6094 0.49219 0.50391 0.97656 1 1.8047 1.5664 0.10938 0.074219 0.19531 0.16797 0.26953 0.27344l0.007813 0.011718 0.003906 0.007813 0.019531 0.03125 0.003906 0.007812 0.007813 0.011719 0.003906 0.007812 0.007812 0.011719 0.003907 0.007813 0.007812 0.011718 0.003907 0.007813 0.007812 0.011719 0.003906 0.007812 0.007813 0.011719 0.003906 0.011719 0.015625 0.035156 0.035156 0.10547 0.003906 0.007812 0.003907 0.015625 0.003906 0.007813 0.003906 0.015625 0.003907 0.007812 0.003906 0.015625v0.007813l0.003906 0.019531v0.007813l0.003906 0.019531v0.12109c0.11328 2.5156 0.36328 5.0156 0.73438 7.4883l0.007813 0.035156c0.375 2.5078 0.87891 4.957 1.5 7.3516 0.13672 0.53125-0.18359 1.0781-0.71484 1.2148-0.53125 0.13672-1.0781-0.18359-1.2148-0.71484-0.64844-2.4961-1.1641-5.0156-1.5469-7.5547l-0.003906-0.035156c-0.35156-2.3672-0.59375-4.7891-0.72656-7.2578-0.74219-0.55078-1.2188-1.0391-1.7031-1.5312-1.0312-1.0547-2.1055-2.1562-6.6641-4.1602zm0.31641-26.887c0.074219 0.28516 0.11328 0.57812 0.11328 0.87109 0 0.34375-0.054688 0.69531-0.15625 1.0234-0.10547 0.33984-0.26953 0.66406-0.48438 0.94141-0.46875 0.61719-1.168 1.0273-2.0625 1.0273-0.28516 0-0.57031-0.03125-0.85156-0.10156-0.63281-0.14453-1.1641-0.47266-1.5508-0.96094-0.1875-0.24219-0.33594-0.51562-0.43359-0.82812l-0.085937 0.070313c-0.49609 0.42188-0.97656 0.91016-1.4336 1.457-0.35156 0.42188-0.98438 0.47656-1.4062 0.125s-0.47656-0.98438-0.125-1.4062c0.53516-0.64062 1.0938-1.207 1.6758-1.6992 0.56641-0.48047 1.1602-0.89453 1.7852-1.2383l0.003907-0.003906 0.015624-0.007813 0.10547-0.058594 0.007813-0.003906c0.46484-0.25 0.94531-0.46484 1.4336-0.63672l0.050781-0.015626c0.49219-0.17187 0.99609-0.30078 1.5078-0.39062h0.007813l0.015625-0.003907h0.007812l0.015625-0.003906 0.023438-0.003906c1.0938-0.1875 2.2461-0.19922 3.4453-0.03125 1.1758 0.16406 2.4102 0.50391 3.6875 1.0078l0.070313 0.023438 0.011719 0.007812 0.007812 0.003907 0.011719 0.007812 0.007812 0.003906 0.011719 0.007813 0.007812 0.003906 0.011719 0.007813 0.007813 0.007812 0.011718 0.007812 0.007813 0.007813 0.011719 0.007813 0.007812 0.007812 0.046875 0.03125 0.007813 0.007812 0.011718 0.007813 0.007813 0.007813 0.011719 0.007812 0.007812 0.007812 0.011719 0.007813 0.007813 0.007813 0.011718 0.007812 0.035156 0.035156 0.003907 0.007813 0.03125 0.03125 0.011719 0.015625 0.003906 0.003906 0.015625 0.019531 0.011719 0.015625 0.003906 0.003906 0.011718 0.015626 0.003907 0.003906 0.011719 0.015625 0.003906 0.003906 0.039062 0.058594v0.003906l0.011719 0.015625 0.003906 0.003906 0.007813 0.019532v0.003906l0.011718 0.019531v0.003906l0.007813 0.019531v0.003907l0.007813 0.019531v0.003906l0.007812 0.019532v0.003906l0.007812 0.019531v0.003906l0.007813 0.019531v0.003907l0.007813 0.019531v0.003906l0.007812 0.019532v0.003906l0.007812 0.019531v0.003906l0.007813 0.019531v0.003907l0.003906 0.019531v0.003906l0.003907 0.019532v0.003906l0.003906 0.019531v0.003906l0.003906 0.019531v0.003907l0.003906 0.019531v0.003906l0.003906 0.019532v0.19922l-0.003906 0.019532v0.007812l-0.003906 0.019531v0.007813l-0.003906 0.019531v0.007813l-0.003906 0.019531v0.007812l-0.003907 0.015625v0.007813l-0.003906 0.015625v0.007812l-0.003906 0.015625-0.003907 0.007813-0.003906 0.015625-0.003906 0.007812-0.003906 0.015625-0.039063 0.11719-0.007812 0.011718-0.003907 0.007813-0.007812 0.011719-0.003906 0.007812-0.007813 0.011719-0.003906 0.007813-0.007813 0.011718-0.007812 0.007813-0.007812 0.011719-0.007813 0.007812-0.007813 0.011719-0.007812 0.007812-0.007812 0.011719-0.015626 0.019531-0.003906 0.007813c-0.53906 0.83594-1.1211 1.543-1.7344 2.1172-0.64453 0.60156-1.3359 1.0586-2.0664 1.3672-0.50781 0.21094-1.0898-0.023438-1.3047-0.53125-0.21094-0.50781 0.023437-1.0898 0.53125-1.3047 0.50781-0.21484 1.0039-0.54688 1.4805-0.99219 0.23438-0.21875 0.46484-0.46484 0.69141-0.74219-0.70312-0.21875-1.3789-0.375-2.0391-0.46484-0.46094-0.0625-0.91016-0.097656-1.3516-0.097656zm-3.5664 0.77734-0.007812 0.1875c-0.003907 0.27344 0.054687 0.47656 0.16016 0.60938 0.089844 0.11719 0.24609 0.20312 0.4375 0.24609 0.10156 0.027343 0.23438 0.039062 0.39062 0.039062 0.20703 0 0.36719-0.09375 0.47656-0.23828 0.066407-0.089844 0.12109-0.19922 0.16016-0.32422 0.039062-0.13281 0.0625-0.28125 0.0625-0.43359 0-0.22266-0.050782-0.44922-0.15234-0.63672-0.23828 0.058593-0.47266 0.125-0.70312 0.20703l-0.039063 0.015625c-0.26562 0.09375-0.52734 0.19922-0.78516 0.32422zm-11.059 12.25c-0.47266-0.28516-0.625-0.89844-0.33984-1.3711 0.28516-0.47266 0.89844-0.625 1.3711-0.33984 0.47656 0.28906 0.86328 0.61719 1.1523 0.98438 0.31641 0.40234 0.51562 0.84766 0.59766 1.3359 0.089844 0.54297-0.27734 1.0586-0.82031 1.1484-0.54297 0.089844-1.0586-0.27734-1.1484-0.82031-0.023437-0.14453-0.09375-0.29297-0.20312-0.42969-0.13672-0.17578-0.34375-0.34766-0.60938-0.50781zm23.574-8.957c-0.21875-0.50781 0.015625-1.0938 0.52344-1.3125 0.50781-0.21875 1.0938 0.015624 1.3125 0.52344 0.87109 2.0195 1.0117 3.9805 0.41406 5.8828-0.58203 1.8516-1.8594 3.6172-3.8281 5.2812-0.41016 0.34766-1.0156 0.30469-1.3789-0.082032-0.28125 0.98828-0.57031 1.9062-0.88281 2.75-1.2422 3.3711-2.793 5.6602-4.9844 7.125-0.45703 0.30469-1.0781 0.18359-1.3828-0.27344-0.30469-0.45703-0.18359-1.0781 0.27344-1.3828 1.8125-1.2148 3.1289-3.1953 4.2188-6.1602 1.1445-3.1094 2.0352-7.2578 2.9727-12.684 0.09375-0.54297 0.60937-0.91016 1.1523-0.81641s0.91016 0.60938 0.81641 1.1523c-0.5625 3.2656-1.1133 6.0859-1.7109 8.5156 1.457-1.3125 2.4023-2.6523 2.8281-4.0195 0.44922-1.4297 0.33594-2.9336-0.33984-4.5039zm-23.539-4.7695c0.51172 0.92188 0.91016 1.9531 1.1914 3.0938 0.34766 1.4102 0.51953 3.0039 0.51562 4.7734 0 0.55078-0.44531 0.99609-0.99609 0.99609s-0.99609-0.44531-0.99609-0.99609c0.003906-1.5977-0.15234-3.0312-0.46094-4.293-0.19141-0.78125-0.44531-1.4961-0.75781-2.1406-2.5273 2.3633-4.8203 4.3164-6.875 5.8594-2.875 2.1562-5.3086 3.5234-7.293 4.0898-2.2539 0.64453-4.0078 0.31641-5.25-0.98828l-0.35156-0.41797c-0.32812-0.44141-0.23438-1.0664 0.20703-1.3945 0.44141-0.32813 1.0664-0.23438 1.3945 0.20703l0.19531 0.23047c0.68359 0.71875 1.7734 0.86719 3.2578 0.44531 1.7539-0.5 3.9688-1.7578 6.6445-3.7656 2.2227-1.668 4.7578-3.8555 7.5938-6.5547l0.050781-0.050782c3.1094-3.0312 6.1836-5.5312 9.2188-7.5039 3.0625-1.9883 6.0938-3.4414 9.0859-4.3477 0.52734-0.16016 1.082 0.13672 1.2422 0.66406s-0.13672 1.082-0.66406 1.2422c-2.8047 0.85156-5.668 2.2266-8.5781 4.1133-2.7461 1.7852-5.5391 4.0273-8.3711 6.7344zm6.7344 0.55078c-0.45703 0.30469-1.0781 0.17578-1.3828-0.28125-0.30469-0.45703-0.17578-1.0781 0.28125-1.3828 3.1211-2.0781 5.9062-3.3516 8.3398-3.8242 2.5781-0.5 4.7891-0.10938 6.625 1.1602 0.45312 0.3125 0.56641 0.93359 0.25391 1.3867s-0.93359 0.56641-1.3867 0.25391c-1.375-0.94922-3.082-1.2305-5.1172-0.83594-2.1758 0.42188-4.7188 1.5977-7.6172 3.5273zm-16.441-3.9023c-0.35938 0.41406-0.98828 0.46094-1.4062 0.10156-0.41406-0.35938-0.46094-0.98828-0.10156-1.4062 3.3125-3.8359 6.3398-6.8945 9.0742-9.1758 2.7891-2.332 5.3086-3.8711 7.543-4.6172 0.51953-0.17578 1.0859 0.10937 1.2617 0.62891 0.17578 0.51953-0.10938 1.0859-0.62891 1.2617-1.9922 0.66797-4.293 2.0898-6.8945 4.2578-2.6602 2.2188-5.6094 5.2031-8.8477 8.9492zm11.527-3.1445-0.089844 0.089844-0.019531 0.015625c-4.7109 4.7305-8.7969 8.0742-12.258 10.031-3.6719 2.0781-6.7188 2.6328-9.1328 1.6602-0.51172-0.20313-0.75781-0.78516-0.55469-1.2969 0.20312-0.51172 0.78516-0.75781 1.2969-0.55469 1.8203 0.73438 4.293 0.21875 7.4062-1.543 3.3047-1.8711 7.2539-5.1055 11.84-9.7148 2.0234-2.3477 4-4.2383 5.9219-5.6602 1.9648-1.4531 3.8828-2.4258 5.7539-2.9102 0.53125-0.13672 1.0781 0.18359 1.2148 0.71484s-0.18359 1.0781-0.71484 1.2148c-1.6172 0.42187-3.3086 1.2812-5.0664 2.582-1.7969 1.3281-3.668 3.1211-5.6016 5.3711z"/>

  </g><g data-name="business_name" fill="#e773b4" data="id:91" transform="translate(62.40877430028954, 229.4563065240428) scale(0.9580675582517579)"><path d="M25.17578125,24.04296875q0.29296875,0,0.517578125,0.205078125t0.224609375,0.537109375q0,0.4296875-0.37109375,0.64453125q-0.05859375,0.0390625-0.517578125,0.37109375t-1.005859375,1.07421875t-1.0546875,1.962890625t-0.64453125,3.017578125q-0.0390625,0.3125-0.048828125,0.625t-0.029296875,0.625q0.3515625-0.0390625,0.732421875-0.068359375t0.810546875-0.029296875q1.40625,0,2.71484375,0.3125t2.40234375,0.8984375q2.83203125-1.1328125,4.3359375-3.0078125t1.50390625-4.1796875q0-1.71875-0.859375-3.056640625t-2.412109375-2.255859375t-3.7109375-1.40625t-4.736328125-0.48828125q-2.24609375,0-4.580078125,0.341796875t-4.51171875,1.025390625t-4.091796875,1.69921875t-3.33984375,2.333984375t-2.24609375,2.939453125t-0.8203125,3.515625q0,1.40625,0.48828125,2.470703125t1.298828125,1.77734375t1.865234375,1.07421875t2.20703125,0.361328125q1.3671875,0,2.40234375-0.2734375t1.73828125-0.595703125t1.064453125-0.60546875t0.400390625-0.322265625q0.13671875-0.09765625,0.3125-0.224609375t0.37109375-0.126953125q0.29296875,0,0.5078125,0.205078125t0.21484375,0.517578125t-0.21484375,0.5078125q-0.0390625,0.0390625-0.498046875,0.419921875t-1.318359375,0.810546875t-2.099609375,0.78125t-2.841796875,0.3515625q-1.484375,0-2.822265625-0.48828125t-2.353515625-1.40625t-1.611328125-2.236328125t-0.595703125-2.998046875q0-1.85546875,0.76171875-3.564453125t2.1484375-3.193359375t3.3203125-2.685546875t4.267578125-2.060546875t5.009765625-1.328125t5.52734375-0.46875q2.91015625,0,5.341796875,0.576171875t4.189453125,1.66015625t2.734375,2.65625t0.9765625,3.564453125q0,2.63671875-1.513671875,4.78515625t-4.443359375,3.57421875q1.07421875,0.91796875,1.689453125,2.138671875t0.91796875,2.470703125t0.390625,2.3828125t0.126953125,1.89453125q0.0390625,1.11328125,0.205078125,1.806640625t0.46875,1.083984375t0.7421875,0.537109375t1.064453125,0.146484375q0.87890625,0,1.62109375-0.419921875t1.337890625-1.044921875t1.0546875-1.357421875t0.771484375-1.3671875t0.478515625-1.0546875t0.166015625-0.439453125q0.1953125-0.48828125,0.68359375-0.48828125q0.33203125,0,0.537109375,0.224609375t0.205078125,0.517578125q0,0.09765625-0.0390625,0.25390625q-0.01953125,0.078125-0.224609375,0.595703125t-0.595703125,1.25t-0.9765625,1.572265625t-1.357421875,1.552734375t-1.73828125,1.181640625t-2.138671875,0.46875q-1.03515625,0-1.728515625-0.33203125t-1.1328125-0.966796875t-0.64453125-1.54296875t-0.244140625-2.080078125q-0.01953125-0.48828125-0.05859375-1.162109375t-0.146484375-1.42578125t-0.302734375-1.552734375t-0.546875-1.5625t-0.87890625-1.4453125t-1.2890625-1.19140625q-1.50390625,0.5078125-3.115234375,0.791015625t-3.330078125,0.302734375l0,0.5859375q0,2.40234375-0.478515625,4.501953125t-1.552734375,3.65234375t-2.7734375,2.44140625t-4.140625,0.888671875q-1.2109375,0-2.392578125-0.322265625t-2.20703125-0.888671875t-1.8359375-1.337890625t-1.279296875-1.669921875q-0.09765625-0.15625-0.09765625-0.3515625q0-0.2734375,0.205078125-0.498046875t0.537109375-0.224609375q0.4296875,0,0.64453125,0.37109375q0.4296875,0.76171875,1.11328125,1.40625t1.533203125,1.103515625t1.81640625,0.712890625t1.962890625,0.25390625q2.01171875,0,3.4375-0.712890625t2.32421875-2.03125t1.30859375-3.1640625t0.41015625-4.130859375l0-0.76171875q-0.64453125-0.21484375-1.03515625-0.60546875t-0.390625-0.95703125t0.37109375-0.99609375t1.0546875-0.703125q0-0.44921875,0.01953125-0.888671875t0.05859375-0.869140625q0.1171875-1.40625,0.439453125-2.51953125t0.76171875-1.953125t0.908203125-1.42578125t0.87890625-0.966796875t0.68359375-0.556640625t0.3125-0.1953125q0.13671875-0.078125,0.33203125-0.078125z M27.01171875,34.94140625q-0.33203125-0.09765625-0.64453125-0.1953125t-0.673828125-0.166015625t-0.80078125-0.1171875t-1.005859375-0.048828125q-1.015625,0-1.66015625,0.1171875l0,0.01953125l0,0.9375q1.19140625,0,2.451171875-0.13671875t2.333984375-0.41015625z M56.328125,42.51953125q-0.078125,0.15625-0.322265625,0.654296875t-0.625,1.142578125t-0.888671875,1.34765625t-1.1328125,1.2890625t-1.34765625,0.966796875t-1.5234375,0.380859375q-1.1328125,0-1.904296875-0.72265625t-1.123046875-1.81640625q-0.6640625,1.11328125-1.58203125,1.767578125t-1.8359375,0.654296875q-0.72265625,0-1.30859375-0.263671875t-0.99609375-0.7421875t-0.634765625-1.123046875t-0.224609375-1.40625q0-1.5234375,0.517578125-2.685546875t1.318359375-1.943359375t1.767578125-1.171875t1.865234375-0.390625q0.60546875,0,1.11328125,0.166015625t0.869140625,0.361328125t0.556640625,0.361328125t0.21484375,0.185546875q0.21484375,0.25390625,0.21484375,0.52734375q0,0.29296875-0.21484375,0.517578125t-0.5078125,0.224609375q-0.3125,0-0.52734375-0.21484375q-0.0390625-0.0390625-0.17578125-0.146484375t-0.37109375-0.224609375t-0.556640625-0.205078125t-0.732421875-0.087890625q-0.60546875,0-1.2890625,0.2734375t-1.25,0.849609375t-0.947265625,1.4453125t-0.380859375,2.060546875q0,0.37109375,0.078125,0.751953125t0.2734375,0.693359375t0.52734375,0.5078125t0.8203125,0.1953125q0.3515625,0,0.810546875-0.234375t0.87890625-0.72265625t0.76171875-1.23046875t0.478515625-1.7578125q0.0390625-0.2734375,0.25390625-0.458984375t0.5078125-0.185546875q0.2734375,0,0.478515625,0.21484375t0.224609375,0.48828125q0.01953125,0.37109375,0.078125,1.044921875t0.263671875,1.337890625t0.615234375,1.15234375t1.1328125,0.48828125q0.46875,0,0.927734375-0.25390625t0.8984375-0.673828125t0.83984375-0.95703125t0.732421875-1.083984375t0.5859375-1.0546875t0.4296875-0.87890625q0.09765625-0.21484375,0.283203125-0.33203125t0.400390625-0.1171875q0.33203125,0,0.537109375,0.244140625t0.205078125,0.517578125q0,0.13671875-0.05859375,0.2734375z M57.32421875,45.8203125q0.41015625,0.56640625,1.0546875,0.908203125t1.58203125,0.341796875q0.95703125,0,1.73828125-0.458984375t1.42578125-1.201171875t1.15234375-1.66015625t0.91796875-1.8359375q0.09765625-0.21484375,0.2734375-0.322265625t0.390625-0.107421875q0.33203125,0,0.537109375,0.234375t0.205078125,0.5078125q0,0.09765625-0.01953125,0.166015625t-0.05859375,0.146484375q-1.34765625,2.96875-2.939453125,4.47265625t-3.603515625,1.54296875q-1.2890625,0-2.2265625-0.498046875t-1.54296875-1.2890625t-0.8984375-1.787109375t-0.29296875-1.9921875t0.244140625-1.8359375t0.703125-1.46484375t1.09375-0.9765625t1.396484375-0.3515625q0.44921875,0,0.888671875,0.185546875t0.791015625,0.52734375t0.56640625,0.830078125t0.21484375,1.11328125q0,0.80078125-0.2734375,1.50390625t-0.751953125,1.30859375t-1.142578125,1.11328125t-1.42578125,0.87890625z M56.73828125,44.55078125q0.60546875-0.25390625,1.103515625-0.64453125t0.849609375-0.859375t0.546875-0.986328125t0.1953125-1.044921875q0-0.5859375-0.29296875-0.888671875t-0.68359375-0.302734375q-0.52734375,0-0.8984375,0.29296875t-0.60546875,0.76171875t-0.341796875,1.044921875t-0.107421875,1.142578125q0,0.3515625,0.068359375,0.7421875t0.166015625,0.7421875z M72.7734375,42.28515625q0.95703125,4.51171875,2.7734375,4.51171875q0.703125,0,1.34765625-0.517578125t1.201171875-1.26953125t0.986328125-1.591796875t0.703125-1.46484375q0.1953125-0.46875,0.68359375-0.46875q0.3125,0,0.52734375,0.234375t0.21484375,0.5078125q0,0.15625-0.05859375,0.2734375q-0.13671875,0.33203125-0.400390625,0.888671875t-0.64453125,1.19140625t-0.849609375,1.298828125t-1.03515625,1.19140625t-1.201171875,0.869140625t-1.337890625,0.341796875q-1.30859375,0-2.24609375-0.908203125t-1.62109375-2.998046875q-0.9375,1.9921875-1.89453125,2.890625t-2.0703125,0.8984375q-0.5859375,0-1.1328125-0.185546875t-0.95703125-0.615234375t-0.6640625-1.103515625t-0.25390625-1.650390625q0-1.34765625,0.46875-2.48046875t1.2109375-1.943359375t1.650390625-1.259765625t1.806640625-0.44921875q0.29296875,0,0.5078125,0.205078125t0.21484375,0.517578125q0,0.2734375-0.17578125,0.48828125t-0.46875,0.25390625q-0.5859375,0.078125-1.25,0.37109375t-1.220703125,0.849609375t-0.91796875,1.416015625t-0.361328125,2.05078125q0,0.9765625,0.400390625,1.5234375t1.162109375,0.546875q0.3125,0,0.6640625-0.166015625t0.751953125-0.654296875t0.87890625-1.38671875t1.064453125-2.36328125q-0.33203125-1.71875-0.60546875-3.96484375t-0.2734375-5.01953125q0-1.2109375,0.078125-2.529296875t0.25390625-2.578125t0.46875-2.392578125t0.712890625-1.9921875t0.986328125-1.357421875t1.2890625-0.498046875q0.64453125,0,1.09375,0.3515625t0.732421875,0.9765625t0.419921875,1.50390625t0.13671875,1.93359375q0,2.265625-0.390625,4.53125t-0.966796875,4.3359375t-1.220703125,3.828125t-1.171875,3.02734375z M75.05859375,26.54296875q0-0.48828125-0.029296875-1.0546875t-0.13671875-1.064453125t-0.283203125-0.830078125t-0.46875-0.33203125q-0.48828125,0-0.908203125,0.859375t-0.732421875,2.255859375t-0.498046875,3.1640625t-0.185546875,3.564453125q0,1.71875,0.13671875,3.4375t0.3125,3.06640625q0.56640625-1.50390625,1.07421875-3.095703125t0.888671875-3.251953125t0.60546875-3.349609375t0.224609375-3.369140625z M82.98828125,32.63671875q0,0.7421875-0.517578125,1.259765625t-1.259765625,0.517578125t-1.259765625-0.517578125t-0.517578125-1.259765625q0-0.37109375,0.13671875-0.693359375t0.380859375-0.56640625t0.56640625-0.380859375t0.693359375-0.13671875t0.693359375,0.13671875t0.56640625,0.380859375t0.380859375,0.56640625t0.13671875,0.693359375z M79.82421875,44.08203125q0-2.8125,0.3515625-5.60546875q0.0390625-0.2734375,0.244140625-0.478515625t0.537109375-0.205078125q0.29296875,0,0.48828125,0.224609375t0.1953125,0.517578125q0,0.1171875-0.048828125,0.703125t-0.1171875,1.396484375t-0.1171875,1.71875t-0.048828125,1.669921875q0,1.03515625,0.205078125,1.669921875t0.52734375,0.986328125t0.68359375,0.46875t0.693359375,0.1171875q0.546875,0,1.1328125-0.390625t1.201171875-1.09375t1.240234375-1.689453125t1.23046875-2.197265625q0.09765625-0.1953125,0.2734375-0.302734375t0.390625-0.107421875q0.3125,0,0.517578125,0.234375t0.205078125,0.5078125q0,0.1953125-0.078125,0.33203125q-0.234375,0.44921875-0.5859375,1.09375t-0.80078125,1.328125t-0.986328125,1.357421875t-1.142578125,1.2109375t-1.26953125,0.869140625t-1.34765625,0.33203125q-0.87890625,0-1.54296875-0.37109375t-1.123046875-0.99609375t-0.68359375-1.474609375t-0.224609375-1.826171875z M81.89453125,32.63671875q0-0.2734375-0.205078125-0.478515625t-0.478515625-0.205078125t-0.46875,0.205078125t-0.1953125,0.478515625t0.1953125,0.46875t0.46875,0.1953125t0.478515625-0.1953125t0.205078125-0.46875z M103.30078125,42.51953125q-0.078125,0.15625-0.322265625,0.654296875t-0.625,1.142578125t-0.888671875,1.34765625t-1.1328125,1.2890625t-1.34765625,0.966796875t-1.5234375,0.380859375q-1.1328125,0-1.904296875-0.72265625t-1.123046875-1.81640625q-0.6640625,1.11328125-1.58203125,1.767578125t-1.8359375,0.654296875q-0.72265625,0-1.30859375-0.263671875t-0.99609375-0.7421875t-0.634765625-1.123046875t-0.224609375-1.40625q0-1.5234375,0.517578125-2.685546875t1.318359375-1.943359375t1.767578125-1.171875t1.865234375-0.390625q0.60546875,0,1.11328125,0.166015625t0.869140625,0.361328125t0.556640625,0.361328125t0.21484375,0.185546875q0.21484375,0.25390625,0.21484375,0.52734375q0,0.29296875-0.21484375,0.517578125t-0.5078125,0.224609375q-0.3125,0-0.52734375-0.21484375q-0.0390625-0.0390625-0.17578125-0.146484375t-0.37109375-0.224609375t-0.556640625-0.205078125t-0.732421875-0.087890625q-0.60546875,0-1.2890625,0.2734375t-1.25,0.849609375t-0.947265625,1.4453125t-0.380859375,2.060546875q0,0.37109375,0.078125,0.751953125t0.2734375,0.693359375t0.52734375,0.5078125t0.8203125,0.1953125q0.3515625,0,0.810546875-0.234375t0.87890625-0.72265625t0.76171875-1.23046875t0.478515625-1.7578125q0.0390625-0.2734375,0.25390625-0.458984375t0.5078125-0.185546875q0.2734375,0,0.478515625,0.21484375t0.224609375,0.48828125q0.01953125,0.37109375,0.078125,1.044921875t0.263671875,1.337890625t0.615234375,1.15234375t1.1328125,0.48828125q0.46875,0,0.927734375-0.25390625t0.8984375-0.673828125t0.83984375-0.95703125t0.732421875-1.083984375t0.5859375-1.0546875t0.4296875-0.87890625q0.09765625-0.21484375,0.283203125-0.33203125t0.400390625-0.1171875q0.33203125,0,0.537109375,0.244140625t0.205078125,0.517578125q0,0.13671875-0.05859375,0.2734375z M106.2890625,46.2109375q0.3125-0.64453125,0.72265625-1.416015625t0.87890625-1.5625t0.986328125-1.572265625t1.083984375-1.484375q0.56640625-0.68359375,1.142578125-0.986328125t1.083984375-0.302734375q1.015625,0,1.50390625,0.7421875t0.48828125,1.8359375q0,0.25390625-0.029296875,0.615234375t-0.05859375,0.771484375t-0.05859375,0.830078125t-0.029296875,0.791015625q0,0.46875,0.048828125,0.8984375t0.185546875,0.751953125t0.390625,0.5078125t0.6640625,0.185546875q0.7421875,0,1.4453125-0.576171875t1.298828125-1.3671875t1.03515625-1.611328125t0.654296875-1.328125q0.09765625-0.21484375,0.283203125-0.33203125t0.400390625-0.1171875q0.33203125,0,0.537109375,0.244140625t0.205078125,0.517578125q0,0.13671875-0.05859375,0.2734375q-0.078125,0.15625-0.3125,0.64453125t-0.615234375,1.123046875t-0.888671875,1.34765625t-1.123046875,1.298828125t-1.328125,0.9765625t-1.494140625,0.390625q-0.87890625,0-1.42578125-0.341796875t-0.859375-0.8984375t-0.419921875-1.23046875t-0.107421875-1.357421875q0-0.29296875,0.029296875-0.6640625t0.078125-0.78125t0.078125-0.8203125t0.029296875-0.78125q0-0.625-0.1953125-0.849609375t-0.3515625-0.224609375q-0.3125,0-0.712890625,0.361328125t-0.83984375,0.947265625t-0.8984375,1.318359375t-0.859375,1.455078125t-0.7421875,1.376953125t-0.537109375,1.083984375q-0.390625,0.8203125-0.78125,1.103515625t-0.80078125,0.283203125q-0.56640625,0-0.908203125-0.341796875t-0.341796875-0.966796875q0-0.13671875,0.0390625-0.537109375t0.09765625-0.95703125t0.1171875-1.201171875t0.1171875-1.279296875t0.09765625-1.181640625t0.0390625-0.91796875q0-0.48828125-0.0390625-0.9375t-0.15625-0.546875q-0.17578125,0.05859375-0.625,0.732421875t-1.15234375,2.373046875q-0.09765625,0.21484375-0.29296875,0.33203125t-0.41015625,0.1171875q-0.33203125,0-0.52734375-0.224609375t-0.1953125-0.517578125q0-0.13671875,0.05859375-0.29296875q0.87890625-2.08984375,1.650390625-3.076171875t1.533203125-0.986328125q0.44921875,0,0.76171875,0.224609375t0.498046875,0.595703125t0.2734375,0.8203125t0.087890625,0.91796875q0,0.3515625-0.048828125,1.09375t-0.126953125,1.591796875t-0.146484375,1.689453125t-0.126953125,1.40625z M135.56640625,28.41796875q0,0.3125-0.21484375,0.498046875t-0.52734375,0.185546875l-9.90234375,0l0,0.21484375q0,1.19140625-0.17578125,2.5390625t-0.478515625,2.685546875t-0.68359375,2.607421875t-0.78125,2.34375t-0.791015625,1.865234375t-0.703125,1.181640625q0.25390625,0.8984375,0.60546875,1.669921875t0.791015625,1.34765625t0.947265625,0.908203125t1.09375,0.33203125q0.68359375,0,1.357421875-0.576171875t1.25-1.3671875t1.015625-1.6015625t0.634765625-1.298828125q0.1953125-0.46875,0.68359375-0.46875q0.33203125,0,0.537109375,0.234375t0.205078125,0.5078125q0,0.13671875-0.05859375,0.2734375t-0.283203125,0.625t-0.5859375,1.1328125t-0.83984375,1.357421875t-1.07421875,1.298828125t-1.279296875,0.9765625t-1.4453125,0.390625q-1.34765625,0-2.421875-0.87890625t-1.826171875-2.4609375t-1.142578125-3.75t-0.390625-4.74609375q0-0.64453125,0.01953125-1.513671875t0.078125-1.8359375t0.17578125-1.9921875t0.3125-2.001953125l-7.01171875,0q-0.3125,0-0.52734375-0.185546875t-0.21484375-0.498046875t0.21484375-0.498046875t0.52734375-0.185546875l7.34375,0q0.1953125-0.703125,0.458984375-1.2890625t0.60546875-1.015625t0.76171875-0.673828125t0.927734375-0.244140625q0.48828125,0,0.849609375,0.244140625t0.615234375,0.673828125t0.400390625,1.015625t0.224609375,1.2890625l9.98046875,0q0.3125,0,0.52734375,0.185546875t0.21484375,0.498046875z M120.859375,40.5859375q0.5859375-1.2890625,1.064453125-2.783203125t0.8203125-3.017578125t0.52734375-2.98828125t0.185546875-2.6953125l-2.3046875,0q-0.2734375,1.2109375-0.439453125,2.998046875t-0.166015625,4.345703125q0,1.42578125,0.078125,2.392578125t0.234375,1.748046875z M122.67578125,25.9765625q-0.17578125,0-0.5078125,0.380859375t-0.6640625,1.376953125l1.875,0q-0.09765625-0.8203125-0.283203125-1.2890625t-0.419921875-0.46875z M121.171875,41.9921875l0,0.01953125l0-0.01953125z  M169.08203125,39.66796875q-0.01953125,0.078125-0.2734375,0.6640625t-0.849609375,1.4453125t-1.572265625,1.89453125t-2.4609375,2.021484375t-3.515625,1.796875t-4.70703125,1.240234375q-1.796875,0.29296875-3.76953125,0.29296875q-1.640625,0-3.291015625-0.224609375t-3.1640625-0.703125t-2.822265625-1.220703125t-2.275390625-1.7578125t-1.5234375-2.333984375t-0.556640625-2.939453125q0-2.87109375,1.591796875-4.94140625t4.716796875-3.22265625q-1.11328125-1.03515625-1.66015625-2.28515625t-0.546875-2.59765625q0-1.6796875,0.771484375-3.10546875t2.138671875-2.4609375t3.251953125-1.611328125t4.130859375-0.576171875q2.265625,0,3.955078125,0.4296875t2.890625,1.07421875t1.97265625,1.40625t1.220703125,1.42578125t0.625,1.123046875t0.1953125,0.517578125q0.01953125,0.078125,0.01953125,0.21484375q0,0.2734375-0.205078125,0.498046875t-0.537109375,0.224609375q-0.234375,0-0.419921875-0.146484375t-0.263671875-0.400390625q0-0.0390625-0.15625-0.419921875t-0.546875-0.927734375t-1.064453125-1.162109375t-1.728515625-1.15234375t-2.51953125-0.888671875t-3.4375-0.3515625q-2.265625,0-3.935546875,0.56640625t-2.75390625,1.474609375t-1.611328125,2.021484375t-0.52734375,2.1875q0,1.26953125,0.625,2.421875t1.796875,1.97265625q1.0546875-0.2734375,2.0703125-0.4296875t1.9140625-0.244140625t1.630859375-0.1171875t1.201171875-0.029296875q0.859375,0,1.58203125,0.126953125t1.240234375,0.37109375t0.810546875,0.625t0.29296875,0.869140625t-0.29296875,0.87890625t-0.810546875,0.6640625t-1.240234375,0.419921875t-1.58203125,0.146484375q-0.9375,0-1.89453125-0.1171875t-1.865234375-0.33203125t-1.748046875-0.537109375t-1.5234375-0.732421875q-3.10546875,0.9375-4.70703125,2.705078125t-1.6015625,4.365234375q0,1.40625,0.498046875,2.529296875t1.376953125,1.982421875t2.060546875,1.474609375t2.529296875,1.005859375t2.8125,0.576171875t2.91015625,0.185546875q0.9375,0,1.81640625-0.068359375t1.69921875-0.205078125q2.4609375-0.390625,4.326171875-1.142578125t3.22265625-1.640625t2.255859375-1.81640625t1.435546875-1.69921875t0.76171875-1.259765625t0.224609375-0.5078125q0.078125-0.234375,0.263671875-0.361328125t0.419921875-0.126953125q0.3125,0,0.52734375,0.21484375t0.21484375,0.5078125q0,0.078125-0.0390625,0.234375z M155.546875,32.34375q0-0.15625-0.25390625-0.2734375t-0.654296875-0.185546875t-0.908203125-0.09765625t-1.03515625-0.029296875q-1.15234375,0-2.1875,0.068359375t-2.36328125,0.322265625q1.015625,0.37109375,2.333984375,0.595703125t2.666015625,0.224609375q1.23046875,0,1.81640625-0.1953125t0.5859375-0.4296875z M186.1328125,42.51953125q-0.078125,0.15625-0.322265625,0.654296875t-0.625,1.142578125t-0.888671875,1.34765625t-1.1328125,1.2890625t-1.34765625,0.966796875t-1.5234375,0.380859375q-1.1328125,0-1.904296875-0.72265625t-1.123046875-1.81640625q-0.6640625,1.11328125-1.58203125,1.767578125t-1.8359375,0.654296875q-0.72265625,0-1.30859375-0.263671875t-0.99609375-0.7421875t-0.634765625-1.123046875t-0.224609375-1.40625q0-1.5234375,0.517578125-2.685546875t1.318359375-1.943359375t1.767578125-1.171875t1.865234375-0.390625q0.60546875,0,1.11328125,0.166015625t0.869140625,0.361328125t0.556640625,0.361328125t0.21484375,0.185546875q0.21484375,0.25390625,0.21484375,0.52734375q0,0.29296875-0.21484375,0.517578125t-0.5078125,0.224609375q-0.3125,0-0.52734375-0.21484375q-0.0390625-0.0390625-0.17578125-0.146484375t-0.37109375-0.224609375t-0.556640625-0.205078125t-0.732421875-0.087890625q-0.60546875,0-1.2890625,0.2734375t-1.25,0.849609375t-0.947265625,1.4453125t-0.380859375,2.060546875q0,0.37109375,0.078125,0.751953125t0.2734375,0.693359375t0.52734375,0.5078125t0.8203125,0.1953125q0.3515625,0,0.810546875-0.234375t0.87890625-0.72265625t0.76171875-1.23046875t0.478515625-1.7578125q0.0390625-0.2734375,0.25390625-0.458984375t0.5078125-0.185546875q0.2734375,0,0.478515625,0.21484375t0.224609375,0.48828125q0.01953125,0.37109375,0.078125,1.044921875t0.263671875,1.337890625t0.615234375,1.15234375t1.1328125,0.48828125q0.46875,0,0.927734375-0.25390625t0.8984375-0.673828125t0.83984375-0.95703125t0.732421875-1.083984375t0.5859375-1.0546875t0.4296875-0.87890625q0.09765625-0.21484375,0.283203125-0.33203125t0.400390625-0.1171875q0.33203125,0,0.537109375,0.244140625t0.205078125,0.517578125q0,0.13671875-0.05859375,0.2734375z M186.953125,40.7421875q-0.1171875,0.3125-0.283203125,0.703125t-0.380859375,0.8203125q-0.17578125,0.33203125-0.361328125,0.517578125t-0.478515625,0.185546875q-0.33203125,0-0.52734375-0.205078125t-0.1953125-0.478515625q0-0.09765625,0.01953125-0.166015625t0.09765625-0.224609375q0.5078125-0.9765625,0.751953125-1.708984375t0.400390625-1.533203125q-0.13671875-0.44921875-0.1953125-0.76171875t-0.05859375-0.64453125q0-0.64453125,0.2734375-1.044921875t0.76171875-0.400390625q0.44921875,0,0.712890625,0.390625t0.263671875,0.95703125q0,0.3125-0.05859375,0.625t-0.15625,0.78125q0.44921875,1.11328125,0.8984375,1.97265625t0.80078125,1.572265625t0.576171875,1.337890625t0.224609375,1.25q0,0.8203125-0.33203125,1.5625t-1.09375,1.25q0.09765625,0.01953125,0.1953125,0.01953125l0.1953125,0q1.11328125,0,2.05078125-0.5078125t1.689453125-1.318359375t1.337890625-1.796875t1.015625-1.962890625q0.1953125-0.44921875,0.546875-0.44921875q0.33203125,0,0.517578125,0.234375t0.185546875,0.5078125q0,0.15625-0.05859375,0.29296875q-0.21484375,0.52734375-0.556640625,1.201171875t-0.8203125,1.38671875t-1.103515625,1.396484375t-1.396484375,1.220703125t-1.689453125,0.859375t-2.01171875,0.322265625q-1.30859375,0-2.431640625-0.458984375t-1.826171875-1.513671875q-0.1171875-0.17578125-0.1171875-0.37109375q0-0.29296875,0.224609375-0.517578125t0.517578125-0.224609375q0.3125,0,0.52734375,0.21484375q0.01953125,0.0390625,0.13671875,0.126953125t0.283203125,0.1953125t0.390625,0.185546875t0.458984375,0.078125q0.46875,0,0.791015625-0.1953125t0.517578125-0.478515625t0.283203125-0.60546875t0.087890625-0.556640625q0-0.48828125-0.15625-0.9765625t-0.400390625-0.9765625t-0.52734375-1.005859375t-0.517578125-1.083984375z M210.76171875,28.41796875q0,0.3125-0.21484375,0.498046875t-0.52734375,0.185546875l-9.90234375,0l0,0.21484375q0,1.19140625-0.17578125,2.5390625t-0.478515625,2.685546875t-0.68359375,2.607421875t-0.78125,2.34375t-0.791015625,1.865234375t-0.703125,1.181640625q0.25390625,0.8984375,0.60546875,1.669921875t0.791015625,1.34765625t0.947265625,0.908203125t1.09375,0.33203125q0.68359375,0,1.357421875-0.576171875t1.25-1.3671875t1.015625-1.6015625t0.634765625-1.298828125q0.1953125-0.46875,0.68359375-0.46875q0.33203125,0,0.537109375,0.234375t0.205078125,0.5078125q0,0.13671875-0.05859375,0.2734375t-0.283203125,0.625t-0.5859375,1.1328125t-0.83984375,1.357421875t-1.07421875,1.298828125t-1.279296875,0.9765625t-1.4453125,0.390625q-1.34765625,0-2.421875-0.87890625t-1.826171875-2.4609375t-1.142578125-3.75t-0.390625-4.74609375q0-0.64453125,0.01953125-1.513671875t0.078125-1.8359375t0.17578125-1.9921875t0.3125-2.001953125l-7.01171875,0q-0.3125,0-0.52734375-0.185546875t-0.21484375-0.498046875t0.21484375-0.498046875t0.52734375-0.185546875l7.34375,0q0.1953125-0.703125,0.458984375-1.2890625t0.60546875-1.015625t0.76171875-0.673828125t0.927734375-0.244140625q0.48828125,0,0.849609375,0.244140625t0.615234375,0.673828125t0.400390625,1.015625t0.224609375,1.2890625l9.98046875,0q0.3125,0,0.52734375,0.185546875t0.21484375,0.498046875z M196.0546875,40.5859375q0.5859375-1.2890625,1.064453125-2.783203125t0.8203125-3.017578125t0.52734375-2.98828125t0.185546875-2.6953125l-2.3046875,0q-0.2734375,1.2109375-0.439453125,2.998046875t-0.166015625,4.345703125q0,1.42578125,0.078125,2.392578125t0.234375,1.748046875z M197.87109375,25.9765625q-0.17578125,0-0.5078125,0.380859375t-0.6640625,1.376953125l1.875,0q-0.09765625-0.8203125-0.283203125-1.2890625t-0.419921875-0.46875z M196.3671875,41.9921875l0,0.01953125l0-0.01953125z M205.8203125,46.30859375q0.3125-0.6640625,0.72265625-1.435546875t0.87890625-1.58203125t0.99609375-1.611328125t1.09375-1.50390625q0.56640625-0.68359375,1.142578125-0.986328125t1.083984375-0.302734375t0.888671875,0.205078125t0.625,0.556640625t0.37109375,0.8203125t0.126953125,1.015625q0,0.44921875-0.087890625,1.201171875t-0.087890625,1.572265625q0,0.46875,0.048828125,0.927734375t0.17578125,0.8203125t0.380859375,0.5859375t0.6640625,0.224609375q0.46875,0,0.9375-0.263671875t0.91796875-0.703125t0.859375-0.9765625t0.7421875-1.07421875t0.5859375-1.03515625t0.41015625-0.830078125q0.1953125-0.44921875,0.68359375-0.44921875q0.33203125,0,0.52734375,0.234375t0.1953125,0.5078125q0,0.15625-0.05859375,0.29296875q-0.078125,0.15625-0.302734375,0.64453125t-0.60546875,1.1328125t-0.888671875,1.34765625t-1.123046875,1.298828125t-1.328125,0.9765625t-1.494140625,0.380859375q-0.8984375,0-1.4453125-0.380859375t-0.849609375-0.966796875t-0.41015625-1.30859375t-0.107421875-1.40625q0-0.3515625,0.029296875-0.751953125t0.068359375-0.791015625t0.068359375-0.732421875t0.029296875-0.576171875q0-0.60546875-0.166015625-0.8203125t-0.380859375-0.21484375q-0.3125,0-0.712890625,0.361328125t-0.83984375,0.947265625t-0.87890625,1.318359375t-0.849609375,1.455078125t-0.7421875,1.376953125t-0.546875,1.083984375q-0.41015625,0.8203125-0.830078125,1.103515625t-0.751953125,0.283203125q-0.60546875,0-0.927734375-0.478515625t-0.322265625-1.162109375l0-1.23046875q0-3.69140625,0.009765625-7.041015625t0.09765625-6.23046875t0.29296875-5.21484375t0.615234375-3.984375t1.044921875-2.548828125t1.591796875-0.8984375q0.8203125,0,1.38671875,0.44921875t0.91796875,1.220703125t0.5078125,1.796875t0.15625,2.158203125q0,2.3046875-0.419921875,4.521484375t-1.123046875,4.326171875t-1.640625,4.111328125t-1.97265625,3.896484375l0,0.83984375l0,0.9765625l0,0.91796875l0,0.68359375z M205.8203125,39.1015625q0.8203125-1.796875,1.494140625-3.505859375t1.15234375-3.408203125t0.751953125-3.447265625t0.2734375-3.642578125q0-0.3125-0.029296875-0.99609375t-0.17578125-1.38671875t-0.44921875-1.23046875t-0.849609375-0.52734375q-0.4296875,0-0.7421875,0.576171875t-0.546875,1.5625t-0.390625,2.294921875t-0.25390625,2.7734375t-0.146484375,3.0078125t-0.068359375,2.998046875t-0.01953125,2.724609375l0,2.20703125z M221.640625,45.8203125q0.41015625,0.56640625,1.0546875,0.908203125t1.58203125,0.341796875q0.95703125,0,1.73828125-0.458984375t1.42578125-1.201171875t1.15234375-1.66015625t0.91796875-1.8359375q0.09765625-0.21484375,0.2734375-0.322265625t0.390625-0.107421875q0.33203125,0,0.537109375,0.234375t0.205078125,0.5078125q0,0.09765625-0.01953125,0.166015625t-0.05859375,0.146484375q-1.34765625,2.96875-2.939453125,4.47265625t-3.603515625,1.54296875q-1.2890625,0-2.2265625-0.498046875t-1.54296875-1.2890625t-0.8984375-1.787109375t-0.29296875-1.9921875t0.244140625-1.8359375t0.703125-1.46484375t1.09375-0.9765625t1.396484375-0.3515625q0.44921875,0,0.888671875,0.185546875t0.791015625,0.52734375t0.56640625,0.830078125t0.21484375,1.11328125q0,0.80078125-0.2734375,1.50390625t-0.751953125,1.30859375t-1.142578125,1.11328125t-1.42578125,0.87890625z M221.0546875,44.55078125q0.60546875-0.25390625,1.103515625-0.64453125t0.849609375-0.859375t0.546875-0.986328125t0.1953125-1.044921875q0-0.5859375-0.29296875-0.888671875t-0.68359375-0.302734375q-0.52734375,0-0.8984375,0.29296875t-0.60546875,0.76171875t-0.341796875,1.044921875t-0.107421875,1.142578125q0,0.3515625,0.068359375,0.7421875t0.166015625,0.7421875z M245.33203125,28.41796875q0,0.3125-0.21484375,0.498046875t-0.52734375,0.185546875l-9.90234375,0l0,0.21484375q0,1.19140625-0.17578125,2.5390625t-0.478515625,2.685546875t-0.68359375,2.607421875t-0.78125,2.34375t-0.791015625,1.865234375t-0.703125,1.181640625q0.25390625,0.8984375,0.60546875,1.669921875t0.791015625,1.34765625t0.947265625,0.908203125t1.09375,0.33203125q0.68359375,0,1.357421875-0.576171875t1.25-1.3671875t1.015625-1.6015625t0.634765625-1.298828125q0.1953125-0.46875,0.68359375-0.46875q0.33203125,0,0.537109375,0.234375t0.205078125,0.5078125q0,0.13671875-0.05859375,0.2734375t-0.283203125,0.625t-0.5859375,1.1328125t-0.83984375,1.357421875t-1.07421875,1.298828125t-1.279296875,0.9765625t-1.4453125,0.390625q-1.34765625,0-2.421875-0.87890625t-1.826171875-2.4609375t-1.142578125-3.75t-0.390625-4.74609375q0-0.64453125,0.01953125-1.513671875t0.078125-1.8359375t0.17578125-1.9921875t0.3125-2.001953125l-7.01171875,0q-0.3125,0-0.52734375-0.185546875t-0.21484375-0.498046875t0.21484375-0.498046875t0.52734375-0.185546875l7.34375,0q0.1953125-0.703125,0.458984375-1.2890625t0.60546875-1.015625t0.76171875-0.673828125t0.927734375-0.244140625q0.48828125,0,0.849609375,0.244140625t0.615234375,0.673828125t0.400390625,1.015625t0.224609375,1.2890625l9.98046875,0q0.3125,0,0.52734375,0.185546875t0.21484375,0.498046875z M230.625,40.5859375q0.5859375-1.2890625,1.064453125-2.783203125t0.8203125-3.017578125t0.52734375-2.98828125t0.185546875-2.6953125l-2.3046875,0q-0.2734375,1.2109375-0.439453125,2.998046875t-0.166015625,4.345703125q0,1.42578125,0.078125,2.392578125t0.234375,1.748046875z M232.44140625,25.9765625q-0.17578125,0-0.5078125,0.380859375t-0.6640625,1.376953125l1.875,0q-0.09765625-0.8203125-0.283203125-1.2890625t-0.419921875-0.46875z M230.9375,41.9921875l0,0.01953125l0-0.01953125z M240.390625,46.30859375q0.3125-0.6640625,0.72265625-1.435546875t0.87890625-1.58203125t0.99609375-1.611328125t1.09375-1.50390625q0.56640625-0.68359375,1.142578125-0.986328125t1.083984375-0.302734375t0.888671875,0.205078125t0.625,0.556640625t0.37109375,0.8203125t0.126953125,1.015625q0,0.44921875-0.087890625,1.201171875t-0.087890625,1.572265625q0,0.46875,0.048828125,0.927734375t0.17578125,0.8203125t0.380859375,0.5859375t0.6640625,0.224609375q0.46875,0,0.9375-0.263671875t0.91796875-0.703125t0.859375-0.9765625t0.7421875-1.07421875t0.5859375-1.03515625t0.41015625-0.830078125q0.1953125-0.44921875,0.68359375-0.44921875q0.33203125,0,0.52734375,0.234375t0.1953125,0.5078125q0,0.15625-0.05859375,0.29296875q-0.078125,0.15625-0.302734375,0.64453125t-0.60546875,1.1328125t-0.888671875,1.34765625t-1.123046875,1.298828125t-1.328125,0.9765625t-1.494140625,0.380859375q-0.8984375,0-1.4453125-0.380859375t-0.849609375-0.966796875t-0.41015625-1.30859375t-0.107421875-1.40625q0-0.3515625,0.029296875-0.751953125t0.068359375-0.791015625t0.068359375-0.732421875t0.029296875-0.576171875q0-0.60546875-0.166015625-0.8203125t-0.380859375-0.21484375q-0.3125,0-0.712890625,0.361328125t-0.83984375,0.947265625t-0.87890625,1.318359375t-0.849609375,1.455078125t-0.7421875,1.376953125t-0.546875,1.083984375q-0.41015625,0.8203125-0.830078125,1.103515625t-0.751953125,0.283203125q-0.60546875,0-0.927734375-0.478515625t-0.322265625-1.162109375l0-1.23046875q0-3.69140625,0.009765625-7.041015625t0.09765625-6.23046875t0.29296875-5.21484375t0.615234375-3.984375t1.044921875-2.548828125t1.591796875-0.8984375q0.8203125,0,1.38671875,0.44921875t0.91796875,1.220703125t0.5078125,1.796875t0.15625,2.158203125q0,2.3046875-0.419921875,4.521484375t-1.123046875,4.326171875t-1.640625,4.111328125t-1.97265625,3.896484375l0,0.83984375l0,0.9765625l0,0.91796875l0,0.68359375z M240.390625,39.1015625q0.8203125-1.796875,1.494140625-3.505859375t1.15234375-3.408203125t0.751953125-3.447265625t0.2734375-3.642578125q0-0.3125-0.029296875-0.99609375t-0.17578125-1.38671875t-0.44921875-1.23046875t-0.849609375-0.52734375q-0.4296875,0-0.7421875,0.576171875t-0.546875,1.5625t-0.390625,2.294921875t-0.25390625,2.7734375t-0.146484375,3.0078125t-0.068359375,2.998046875t-0.01953125,2.724609375l0,2.20703125z M257.05078125,32.63671875q0,0.7421875-0.517578125,1.259765625t-1.259765625,0.517578125t-1.259765625-0.517578125t-0.517578125-1.259765625q0-0.37109375,0.13671875-0.693359375t0.380859375-0.56640625t0.56640625-0.380859375t0.693359375-0.13671875t0.693359375,0.13671875t0.56640625,0.380859375t0.380859375,0.56640625t0.13671875,0.693359375z M253.88671875,44.08203125q0-2.8125,0.3515625-5.60546875q0.0390625-0.2734375,0.244140625-0.478515625t0.537109375-0.205078125q0.29296875,0,0.48828125,0.224609375t0.1953125,0.517578125q0,0.1171875-0.048828125,0.703125t-0.1171875,1.396484375t-0.1171875,1.71875t-0.048828125,1.669921875q0,1.03515625,0.205078125,1.669921875t0.52734375,0.986328125t0.68359375,0.46875t0.693359375,0.1171875q0.546875,0,1.1328125-0.390625t1.201171875-1.09375t1.240234375-1.689453125t1.23046875-2.197265625q0.09765625-0.1953125,0.2734375-0.302734375t0.390625-0.107421875q0.3125,0,0.517578125,0.234375t0.205078125,0.5078125q0,0.1953125-0.078125,0.33203125q-0.234375,0.44921875-0.5859375,1.09375t-0.80078125,1.328125t-0.986328125,1.357421875t-1.142578125,1.2109375t-1.26953125,0.869140625t-1.34765625,0.33203125q-0.87890625,0-1.54296875-0.37109375t-1.123046875-0.99609375t-0.68359375-1.474609375t-0.224609375-1.826171875z M255.95703125,32.63671875q0-0.2734375-0.205078125-0.478515625t-0.478515625-0.205078125t-0.46875,0.205078125t-0.1953125,0.478515625t0.1953125,0.46875t0.46875,0.1953125t0.478515625-0.1953125t0.205078125-0.46875z M275.0390625,42.55859375q-0.1171875,0.21484375-0.400390625,0.78125t-0.76171875,1.279296875t-1.142578125,1.474609375t-1.5234375,1.396484375t-1.923828125,1.044921875t-2.314453125,0.41015625q-1.11328125,0-1.97265625-0.400390625t-1.46484375-1.1328125t-0.91796875-1.728515625t-0.3125-2.20703125q0-1.171875,0.33203125-2.197265625t0.908203125-1.787109375t1.337890625-1.201171875t1.62109375-0.439453125q0.64453125,0,1.171875,0.224609375t0.888671875,0.595703125t0.56640625,0.8203125t0.205078125,0.8984375q0,0.4296875-0.107421875,0.80078125t-0.2734375,0.654296875t-0.380859375,0.44921875t-0.4296875,0.166015625q-0.33203125,0-0.537109375-0.21484375t-0.205078125-0.52734375q0-0.15625,0.068359375-0.2734375t0.15625-0.244140625t0.15625-0.3125t0.068359375-0.478515625q0-0.41015625-0.380859375-0.7421875t-0.966796875-0.33203125q-0.546875,0-1.044921875,0.33203125t-0.869140625,0.888671875t-0.595703125,1.30859375t-0.224609375,1.591796875q0,0.80078125,0.1953125,1.5234375t0.5859375,1.279296875t0.986328125,0.888671875t1.416015625,0.33203125q1.0546875,0,1.953125-0.380859375t1.640625-0.966796875t1.30859375-1.279296875t0.966796875-1.30859375t0.625-1.07421875t0.263671875-0.576171875q0.078125-0.1953125,0.263671875-0.302734375t0.400390625-0.107421875q0.33203125,0,0.537109375,0.234375t0.205078125,0.52734375q0,0.1171875-0.078125,0.3125z M275.87890625,40.7421875q-0.1171875,0.3125-0.283203125,0.703125t-0.380859375,0.8203125q-0.17578125,0.33203125-0.361328125,0.517578125t-0.478515625,0.185546875q-0.33203125,0-0.52734375-0.205078125t-0.1953125-0.478515625q0-0.09765625,0.01953125-0.166015625t0.09765625-0.224609375q0.5078125-0.9765625,0.751953125-1.708984375t0.400390625-1.533203125q-0.13671875-0.44921875-0.1953125-0.76171875t-0.05859375-0.64453125q0-0.64453125,0.2734375-1.044921875t0.76171875-0.400390625q0.44921875,0,0.712890625,0.390625t0.263671875,0.95703125q0,0.3125-0.05859375,0.625t-0.15625,0.78125q0.44921875,1.11328125,0.8984375,1.97265625t0.80078125,1.572265625t0.576171875,1.337890625t0.224609375,1.25q0,0.8203125-0.33203125,1.5625t-1.09375,1.25q0.09765625,0.01953125,0.1953125,0.01953125l0.1953125,0q1.11328125,0,2.05078125-0.5078125t1.689453125-1.318359375t1.337890625-1.796875t1.015625-1.962890625q0.1953125-0.44921875,0.546875-0.44921875q0.33203125,0,0.517578125,0.234375t0.185546875,0.5078125q0,0.15625-0.05859375,0.29296875q-0.21484375,0.52734375-0.556640625,1.201171875t-0.8203125,1.38671875t-1.103515625,1.396484375t-1.396484375,1.220703125t-1.689453125,0.859375t-2.01171875,0.322265625q-1.30859375,0-2.431640625-0.458984375t-1.826171875-1.513671875q-0.1171875-0.17578125-0.1171875-0.37109375q0-0.29296875,0.224609375-0.517578125t0.517578125-0.224609375q0.3125,0,0.52734375,0.21484375q0.01953125,0.0390625,0.13671875,0.126953125t0.283203125,0.1953125t0.390625,0.185546875t0.458984375,0.078125q0.46875,0,0.791015625-0.1953125t0.517578125-0.478515625t0.283203125-0.60546875t0.087890625-0.556640625q0-0.48828125-0.15625-0.9765625t-0.400390625-0.9765625t-0.52734375-1.005859375t-0.517578125-1.083984375z"/></g><g data-name="slogan" fill="#e773b4" data="id:348" transform="translate(104.07618239694031, 277.3883469568441) scale(0.5475104562556251)"><path d="M1.68,19.68q0.84,0.04,2.2,0.08t2.68,0.04q1.88,0,3.6-0.04t2.44-0.04q4.84,0,7.24,2t2.4,4.96q0,1.2-0.48,2.56t-1.66,2.56t-3.22,1.98t-5.16,0.78l-3.84,0l0-0.8l3.44,0q2.84,0,4.34-0.9t2.04-2.4t0.54-3.34q0-3.16-1.5-4.9t-5.14-1.74q-1.84,0-2.4,0.68t-0.56,2.76l0,19.84q0,1.44,0.24,2.16t0.94,0.96t2.06,0.32l0,0.8q-0.92-0.08-2.3-0.1t-2.78-0.02q-1.56,0-2.92,0.02t-2.2,0.1l0-0.8q1.36-0.08,2.06-0.32t0.94-0.96t0.24-2.16l0-19.84q0-1.48-0.24-2.18t-0.94-0.96t-2.06-0.3l0-0.8z M8.04,33.88q2.16,0.08,3.4,0.18t2.02,0.18t1.5,0.2q2.68,0.44,3.86,1.62t1.74,3.66l1,4.08q0.4,1.76,0.82,2.54t1.3,0.74q0.68-0.04,1.14-0.44t0.98-1.08l0.6,0.44q-0.84,1.24-1.74,1.9t-2.54,0.66q-1.48,0-2.6-0.88t-1.68-3.44l-0.88-4q-0.36-1.72-0.82-2.98t-1.28-1.98t-2.42-0.72l-4.32,0z M32.44,48.28q-2.6,0-3.78-1.3t-1.18-3.46q0-1.68,0.82-2.78t2.1-1.8t2.7-1.2t2.7-0.98t2.1-1.08t0.82-1.52l0-2.48q0-1.68-0.5-2.56t-1.34-1.18t-1.88-0.3q-1,0-2.14,0.28t-1.82,1.16q0.76,0.16,1.32,0.8t0.56,1.64t-0.64,1.58t-1.64,0.58q-1.16,0-1.7-0.74t-0.54-1.66q0-1.04,0.52-1.68t1.32-1.2q0.92-0.64,2.38-1.1t3.3-0.46q1.64,0,2.8,0.38t1.92,1.1q1.04,0.96,1.36,2.34t0.32,3.3l0,11.12q0,0.96,0.28,1.42t0.96,0.46q0.56,0,0.98-0.24t0.82-0.6l0.44,0.68q-0.84,0.64-1.6,1.06t-2.04,0.42q-2.08,0-2.76-1.08t-0.68-2.48q-1.28,2.12-2.9,2.84t-3.38,0.72z M34.2,46.68q1.2,0,2.36-0.7t2.16-2.34l0-7.84q-0.6,0.88-1.86,1.4t-2.6,1.14t-2.3,1.68t-0.96,3.02q0,1.84,0.92,2.74t2.28,0.9z M65.2,16.64l0,27q0,1.8,0.66,2.66t2.38,0.86l0,0.84q-1.24-0.12-2.48-0.12q-1.16,0-2.22,0.12t-1.94,0.44l0-27q0-1.8-0.64-2.66t-2.4-0.86l0-0.84q1.28,0.12,2.48,0.12q1.16,0,2.22-0.14t1.94-0.42z M56.8,26.84q1.76,0,3.3,0.84t2.06,2.88l-0.52,0.4q-0.56-1.68-1.74-2.44t-2.78-0.76q-2.36,0-3.94,2.44t-1.54,7.52q0,3.24,0.62,5.38t1.84,3.2t2.98,1.06q1.68,0,3.04-1.44t1.64-4.24l0.48,0.56q-0.32,3.04-1.94,4.68t-4.38,1.64q-2.48,0-4.34-1.2t-2.84-3.6t-0.98-6.04t1.26-6.06t3.32-3.62t4.46-1.2z M74.8,17.4q1.04,0,1.8,0.76t0.76,1.8t-0.76,1.8t-1.8,0.76t-1.8-0.76t-0.76-1.8t0.76-1.8t1.8-0.76z M76.88,26.96l0,17.32q0,1.68,0.7,2.28t2.34,0.6l0,0.84q-0.68-0.04-2.06-0.1t-2.78-0.06q-1.36,0-2.76,0.06t-2.08,0.1l0-0.84q1.64,0,2.34-0.6t0.7-2.28l0-12.52q0-1.8-0.64-2.66t-2.4-0.86l0-0.84q1.28,0.12,2.48,0.12q1.16,0,2.22-0.14t1.94-0.42z M87.32,48.28q-2.6,0-3.78-1.3t-1.18-3.46q0-1.68,0.82-2.78t2.1-1.8t2.7-1.2t2.7-0.98t2.1-1.08t0.82-1.52l0-2.48q0-1.68-0.5-2.56t-1.34-1.18t-1.88-0.3q-1,0-2.14,0.28t-1.82,1.16q0.76,0.16,1.32,0.8t0.56,1.64t-0.64,1.58t-1.64,0.58q-1.16,0-1.7-0.74t-0.54-1.66q0-1.04,0.52-1.68t1.32-1.2q0.92-0.64,2.38-1.1t3.3-0.46q1.64,0,2.8,0.38t1.92,1.1q1.04,0.96,1.36,2.34t0.32,3.3l0,11.12q0,0.96,0.28,1.42t0.96,0.46q0.56,0,0.98-0.24t0.82-0.6l0.44,0.68q-0.84,0.64-1.6,1.06t-2.04,0.42q-2.08,0-2.76-1.08t-0.68-2.48q-1.28,2.12-2.9,2.84t-3.38,0.72z M89.08,46.68q1.2,0,2.36-0.7t2.16-2.34l0-7.84q-0.6,0.88-1.86,1.4t-2.6,1.14t-2.3,1.68t-0.96,3.02q0,1.84,0.92,2.74t2.28,0.9z M108.32,20.76l0,6.68l5.92,0l0,0.8l-5.92,0l0,15.48q0,1.88,0.68,2.64t1.88,0.76t2.08-0.98t1.52-3.3l0.8,0.2q-0.4,2.32-1.58,3.92t-3.62,1.6q-1.36,0-2.24-0.34t-1.56-0.98q-0.88-0.92-1.22-2.2t-0.34-3.4l0-13.4l-3.84,0l0-0.8l3.84,0l0-6.12q1-0.04,1.92-0.16t1.68-0.4z M125.76,26.84q3.52,0,5.5,2.14t1.98,6.66l-14.12,0l-0.04-0.76l10.32,0q0.08-1.96-0.32-3.62t-1.26-2.66t-2.22-1q-1.84,0-3.26,1.84t-1.7,5.84l0.12,0.16q-0.08,0.6-0.12,1.32t-0.04,1.44q0,2.72,0.88,4.68t2.3,2.98t2.94,1.02q1.8,0,3.32-0.88t2.56-3.12l0.8,0.32q-0.44,1.32-1.44,2.56t-2.52,2.02t-3.52,0.78q-2.88,0-4.94-1.32t-3.16-3.66t-1.1-5.38q0-3.52,1.12-6.06t3.16-3.92t4.76-1.38z  M159.92,19.12q2.64,0,4.34,0.78t3.02,1.82q0.8,0.6,1.22,0.14t0.58-2.18l0.92,0q-0.08,1.48-0.12,3.6t-0.04,5.6l-0.92,0q-0.28-1.72-0.52-2.74t-0.58-1.74t-0.9-1.44q-1.24-1.64-3.12-2.38t-3.96-0.74q-1.96,0-3.54,0.98t-2.72,2.82t-1.76,4.44t-0.62,5.84q0,3.36,0.68,5.94t1.9,4.34t2.88,2.66t3.58,0.9q1.8,0,3.76-0.72t3.08-2.32q0.88-1.16,1.22-2.52t0.62-3.8l0.92,0q0,3.64,0.04,5.86t0.12,3.74l-0.92,0q-0.16-1.72-0.54-2.16t-1.26,0.12q-1.48,1.04-3.14,1.82t-4.26,0.78q-3.8,0-6.66-1.72t-4.44-4.96t-1.58-7.8q0-4.48,1.64-7.84t4.5-5.24t6.58-1.88z M183.56,26.84q2.56,0,4.6,1.12t3.26,3.52t1.22,6.24t-1.22,6.22t-3.26,3.5t-4.6,1.12q-2.52,0-4.58-1.12t-3.28-3.5t-1.22-6.22t1.22-6.24t3.28-3.52t4.58-1.12z M183.56,27.64q-2.28,0-3.74,2.36t-1.46,7.72t1.46,7.7t3.74,2.34t3.74-2.34t1.46-7.7t-1.46-7.72t-3.74-2.36z M209.12,26.84q1.52,0,2.54,0.4t1.7,1.12q0.76,0.8,1.08,2t0.32,3.24l0,10.68q0,1.68,0.7,2.28t2.34,0.6l0,0.84q-0.68-0.04-2.08-0.1t-2.72-0.06t-2.58,0.06t-1.9,0.1l0-0.84q1.44,0,2.04-0.6t0.6-2.28l0-11.56q0-1.24-0.2-2.28t-0.9-1.68t-2.14-0.64q-2.52,0-4.06,2.1t-1.54,5.18l0,8.88q0,1.68,0.6,2.28t2.04,0.6l0,0.84q-0.64-0.04-1.9-0.1t-2.58-0.06t-2.72,0.06t-2.08,0.1l0-0.84q1.64,0,2.34-0.6t0.7-2.28l0-12.52q0-1.8-0.64-2.66t-2.4-0.86l0-0.84q1.28,0.12,2.48,0.12q1.16,0,2.22-0.14t1.94-0.42l0,4.72q1.04-2.72,2.9-3.78t3.9-1.06z M229.44,16.72q1.12,0,1.98,0.3t1.5,0.78q0.6,0.48,0.92,1.12t0.32,1.36q0,0.92-0.6,1.52t-1.52,0.6q-0.88,0-1.54-0.58t-0.66-1.58q0-0.84,0.46-1.36t1.22-0.68q-0.12-0.36-0.62-0.62t-1.34-0.26q-0.92,0-1.58,0.4t-1.02,1.08q-0.48,0.84-0.6,2.5t-0.12,5.1l0,1.04l4.28,0l0,0.8l-4.28,0l0,15.64q0,1.96,1.14,2.62t3.1,0.66l0,0.84q-0.92-0.04-2.6-0.1t-3.56-0.06q-1.36,0-2.7,0.06t-2.02,0.1l0-0.84q1.64,0,2.34-0.6t0.7-2.28l0-16.04l-3.2,0l0-0.8l3.2,0q0-3.56,0.46-5.46t1.58-3.26q0.8-0.92,2.04-1.46t2.72-0.54z M237.4,17.4q1.04,0,1.8,0.76t0.76,1.8t-0.76,1.8t-1.8,0.76t-1.8-0.76t-0.76-1.8t0.76-1.8t1.8-0.76z M239.48,26.96l0,17.32q0,1.68,0.7,2.28t2.34,0.6l0,0.84q-0.68-0.04-2.06-0.1t-2.78-0.06q-1.36,0-2.76,0.06t-2.08,0.1l0-0.84q1.64,0,2.34-0.6t0.7-2.28l0-12.52q0-1.8-0.64-2.66t-2.4-0.86l0-0.84q1.28,0.12,2.48,0.12q1.16,0,2.22-0.14t1.94-0.42z M262.76,16.64l0,27q0,1.8,0.66,2.66t2.38,0.86l0,0.84q-1.24-0.12-2.48-0.12q-1.16,0-2.22,0.12t-1.94,0.44l0-27q0-1.8-0.64-2.66t-2.4-0.86l0-0.84q1.28,0.12,2.48,0.12q1.16,0,2.22-0.14t1.94-0.42z M254.36,26.84q1.76,0,3.3,0.84t2.06,2.88l-0.52,0.4q-0.56-1.68-1.74-2.44t-2.78-0.76q-2.36,0-3.94,2.44t-1.54,7.52q0,3.24,0.62,5.38t1.84,3.2t2.98,1.06q1.68,0,3.04-1.44t1.64-4.24l0.48,0.56q-0.32,3.04-1.94,4.68t-4.38,1.64q-2.48,0-4.34-1.2t-2.84-3.6t-0.98-6.04t1.26-6.06t3.32-3.62t4.46-1.2z M277.52,26.84q3.52,0,5.5,2.14t1.98,6.66l-14.12,0l-0.04-0.76l10.32,0q0.08-1.96-0.32-3.62t-1.26-2.66t-2.22-1q-1.84,0-3.26,1.84t-1.7,5.84l0.12,0.16q-0.08,0.6-0.12,1.32t-0.04,1.44q0,2.72,0.88,4.68t2.3,2.98t2.94,1.02q1.8,0,3.32-0.88t2.56-3.12l0.8,0.32q-0.44,1.32-1.44,2.56t-2.52,2.02t-3.52,0.78q-2.88,0-4.94-1.32t-3.16-3.66t-1.1-5.38q0-3.52,1.12-6.06t3.16-3.92t4.76-1.38z M301.48,26.84q1.52,0,2.54,0.4t1.7,1.12q0.76,0.8,1.08,2t0.32,3.24l0,10.68q0,1.68,0.7,2.28t2.34,0.6l0,0.84q-0.68-0.04-2.08-0.1t-2.72-0.06t-2.58,0.06t-1.9,0.1l0-0.84q1.44,0,2.04-0.6t0.6-2.28l0-11.56q0-1.24-0.2-2.28t-0.9-1.68t-2.14-0.64q-2.52,0-4.06,2.1t-1.54,5.18l0,8.88q0,1.68,0.6,2.28t2.04,0.6l0,0.84q-0.64-0.04-1.9-0.1t-2.58-0.06t-2.72,0.06t-2.08,0.1l0-0.84q1.64,0,2.34-0.6t0.7-2.28l0-12.52q0-1.8-0.64-2.66t-2.4-0.86l0-0.84q1.28,0.12,2.48,0.12q1.16,0,2.22-0.14t1.94-0.42l0,4.72q1.04-2.72,2.9-3.78t3.9-1.06z M321.92,26.84q1.28,0,2.48,0.32t2.16,0.96q0.92,0.6,1.4,1.38t0.48,1.7q0,1.08-0.6,1.66t-1.52,0.58q-0.88,0-1.54-0.52t-0.66-1.48q0-0.92,0.5-1.48t1.18-0.72q-0.4-0.72-1.42-1.2t-2.18-0.48q-1,0-2,0.48t-1.84,1.58t-1.36,3t-0.52,4.74q0,3.52,0.8,5.6t2.1,2.98t2.86,0.9t3.16-0.92t2.64-3.2l0.76,0.28q-0.4,1.28-1.32,2.58t-2.4,2.14t-3.64,0.84q-2.48,0-4.48-1.28t-3.18-3.66t-1.18-5.66t1.18-5.78t3.3-3.92t4.84-1.42z M341.08,26.84q3.52,0,5.5,2.14t1.98,6.66l-14.12,0l-0.04-0.76l10.32,0q0.08-1.96-0.32-3.62t-1.26-2.66t-2.22-1q-1.84,0-3.26,1.84t-1.7,5.84l0.12,0.16q-0.08,0.6-0.12,1.32t-0.04,1.44q0,2.72,0.88,4.68t2.3,2.98t2.94,1.02q1.8,0,3.32-0.88t2.56-3.12l0.8,0.32q-0.44,1.32-1.44,2.56t-2.52,2.02t-3.52,0.78q-2.88,0-4.94-1.32t-3.16-3.66t-1.1-5.38q0-3.52,1.12-6.06t3.16-3.92t4.76-1.38z"/></g></svg>